<svg xmlns="http://www.w3.org/2000/svg" viewBox="0 0 640 280" font-family="monospace">
  <rect width="640" height="280" fill="#1f1912"/>
  <rect x="0.5" y="0.5" width="639" height="279" fill="none" stroke="#3a2f22"/>
  <!-- emitter -->
  <circle cx="110" cy="140" r="26" fill="none" stroke="#c9a15a" stroke-width="2"/>
  <circle cx="110" cy="140" r="6" fill="#8a1f1f"/>
  <text x="110" y="196" fill="#a89a82" font-size="13" text-anchor="middle">emitter</text>
  <!-- particles fanning out -->
  <g fill="#c9a15a">
    <circle cx="180" cy="120" r="4" opacity="0.95"/>
    <circle cx="215" cy="90" r="3.4" opacity="0.85"/>
    <circle cx="205" cy="160" r="3.6" opacity="0.85"/>
    <circle cx="255" cy="70" r="2.8" opacity="0.7"/>
    <circle cx="250" cy="130" r="3" opacity="0.75"/>
    <circle cx="245" cy="190" r="2.6" opacity="0.65"/>
    <circle cx="300" cy="55" r="2.2" opacity="0.55"/>
    <circle cx="295" cy="110" r="2.4" opacity="0.6"/>
    <circle cx="290" cy="170" r="2.2" opacity="0.5"/>
    <circle cx="285" cy="215" r="2" opacity="0.45"/>
    <circle cx="340" cy="85" r="1.8" opacity="0.4"/>
    <circle cx="335" cy="145" r="1.8" opacity="0.35"/>
    <circle cx="330" cy="200" r="1.6" opacity="0.3"/>
  </g>
  <!-- pool box -->
  <rect x="400" y="60" width="200" height="74" rx="4" fill="none" stroke="#c9a15a" stroke-width="1.5"/>
  <text x="500" y="90" fill="#e8dfd0" font-size="14" text-anchor="middle">object pool</text>
  <text x="500" y="112" fill="#a89a82" font-size="12" text-anchor="middle">переиспользуем, не создаём</text>
  <rect x="400" y="150" width="200" height="74" rx="4" fill="none" stroke="#3a2f22" stroke-width="1.5"/>
  <text x="500" y="180" fill="#e8dfd0" font-size="14" text-anchor="middle">canvas 2d</text>
  <text x="500" y="202" fill="#a89a82" font-size="12" text-anchor="middle">один rAF на всё</text>
  <line x1="360" y1="140" x2="398" y2="100" stroke="#3a2f22" stroke-width="1.5"/>
  <line x1="360" y1="140" x2="398" y2="185" stroke="#3a2f22" stroke-width="1.5"/>
</svg>
